<?xml version="1.0" encoding="utf-8"?>
<!-- Generator: Adobe Illustrator 22.0.1, SVG Export Plug-In . SVG Version: 6.00 Build 0)  -->
<svg version="1.1" id="Layer_1" xmlns="http://www.w3.org/2000/svg" xmlns:xlink="http://www.w3.org/1999/xlink" x="0px" y="0px"
	 viewBox="0 0 35.92391 32.18449" style="enable-background:new 0 0 35.92391 32.18449;" xml:space="preserve">
<style type="text/css">
	.st0{fill:#E8E8E9;}
</style>
<g>
	<path id="LinkedIn" class="st0" d="M34.66314,19.60818v12.42648h-7.20409V20.44044c0-2.91256-1.04199-4.90028-3.64963-4.90028
		c-1.9906,0-3.17521,1.33957-3.69637,2.63538c-0.19005,0.46325-0.23897,1.10803-0.23897,1.75648v12.10264h-7.20651
		c0,0,0.09706-19.63682,0-21.67134h7.2058v3.07182c-0.01461,0.02298-0.0336,0.04775-0.04736,0.07002h0.04736v-0.07002
		c0.95736-1.47453,2.66711-3.58094,6.49405-3.58094C31.10877,9.85413,34.66314,12.95159,34.66314,19.60818z M5.12926-0.08333
		c-2.46534,0-4.07787,1.61707-4.07787,3.74356c0,2.08016,1.56588,3.7463,3.98222,3.7463h0.04814
		c2.51308,0,4.076-1.66583,4.076-3.7463C9.11039,1.53373,7.59484-0.08333,5.12926-0.08333z M1.4794,32.03466h7.20377V10.36333
		H1.4794V32.03466z"/>
</g>
</svg>
