<?xml version="1.0" encoding="utf-8"?>
<!-- Generator: Adobe Illustrator 22.0.1, SVG Export Plug-In . SVG Version: 6.00 Build 0)  -->
<svg version="1.1" id="Layer_1" xmlns="http://www.w3.org/2000/svg" xmlns:xlink="http://www.w3.org/1999/xlink" x="0px" y="0px"
	 viewBox="0 0 35.9 32.2" style="enable-background:new 0 0 35.9 32.2;" xml:space="preserve">
<style type="text/css">
	.st0{fill:#7448FF;}
</style>
<g>
	<path id="LinkedIn" class="st0" d="M34.7,19.6V32h-7.2V20.4c0-2.9-1-4.9-3.6-4.9c-2,0-3.2,1.3-3.7,2.6c-0.2,0.5-0.2,1.1-0.2,1.8V32
		h-7.2c0,0,0.1-19.6,0-21.7h7.2v3.1c0,0,0,0,0,0.1h0v-0.1c1-1.5,2.7-3.6,6.5-3.6C31.1,9.9,34.7,13,34.7,19.6z M5.1-0.1
		c-2.5,0-4.1,1.6-4.1,3.7c0,2.1,1.6,3.7,4,3.7h0c2.5,0,4.1-1.7,4.1-3.7C9.1,1.5,7.6-0.1,5.1-0.1z M1.5,32h7.2V10.4H1.5V32z"/>
</g>
</svg>
