<?xml version="1.0" encoding="utf-8"?>
<!-- Generator: Adobe Illustrator 22.0.1, SVG Export Plug-In . SVG Version: 6.00 Build 0)  -->
<svg version="1.1" id="Layer_1" xmlns="http://www.w3.org/2000/svg" xmlns:xlink="http://www.w3.org/1999/xlink" x="0px" y="0px"
	 viewBox="0 0 35.92391 32.18449" style="enable-background:new 0 0 35.92391 32.18449;" xml:space="preserve">
<style type="text/css">
	.st0{fill:#E8E8E9;}
</style>
<path class="st0" d="M11.31683,31.18449c13.5936,0,21.02655-11.25944,21.02655-21.02654c0-0.31569,0-0.64094-0.01913-0.95662
	c1.4445-1.04272,2.69767-2.34372,3.68299-3.82649c-1.34884,0.59311-2.7742,0.98532-4.2474,1.16708
	C33.3,5.61399,34.45752,4.16949,35.01235,2.45714c-1.45406,0.86096-3.03249,1.46363-4.68744,1.78888
	c-2.79334-2.97509-7.48078-3.11859-10.45588-0.32525c-1.92281,1.80802-2.73594,4.49612-2.13327,7.05987
	C11.79514,10.68409,6.25631,7.88119,2.50635,3.2607c-1.96107,3.37687-0.95662,7.69124,2.28633,9.86277
	c-1.17664-0.03826-2.32459-0.35395-3.35774-0.92792c0,0.0287,0,0.0574,0,0.09566c0,3.52037,2.47765,6.54329,5.93105,7.24163
	c-1.09055,0.29655-2.22893,0.34438-3.33861,0.12436c0.96619,3.01336,3.74039,5.07009,6.90681,5.12749
	c-2.61158,2.05674-5.84496,3.17599-9.174,3.16642c-0.58354,0-1.17664-0.03827-1.76018-0.10523
	C3.37687,30.03654,7.30859,31.18449,11.31683,31.18449"/>
</svg>
